<svg width="119" height="40" viewBox="0 0 119 40" fill="none" xmlns="http://www.w3.org/2000/svg">
<path d="M43.8695 35.1406C42.2857 35.1406 41.0079 34.6096 40.036 33.5478C39.0641 32.4679 38.5782 30.9651 38.5782 29.0393V21.5073C38.5782 21.3093 38.6412 21.1473 38.7672 21.0213C38.8931 20.8953 39.0551 20.8323 39.2531 20.8323H42.6277C42.8257 20.8323 42.9876 20.8953 43.1136 21.0213C43.2576 21.1473 43.3296 21.3093 43.3296 21.5073V28.8773C43.3296 30.6411 44.1125 31.523 45.6783 31.523C46.4342 31.523 47.0281 31.289 47.4601 30.8211C47.892 30.3532 48.108 29.7052 48.108 28.8773V21.5073C48.108 21.3093 48.171 21.1473 48.297 21.0213C48.441 20.8953 48.6029 20.8323 48.7829 20.8323H52.1575C52.3555 20.8323 52.5174 20.8953 52.6434 21.0213C52.7694 21.1473 52.8324 21.3093 52.8324 21.5073V34.1957C52.8324 34.3757 52.7694 34.5376 52.6434 34.6816C52.5174 34.8076 52.3555 34.8706 52.1575 34.8706H49.0259C48.8459 34.8706 48.6839 34.8076 48.5399 34.6816C48.414 34.5376 48.351 34.3757 48.351 34.1957V33.1698C47.4151 34.4836 45.9213 35.1406 43.8695 35.1406Z" fill="white"/>
<path d="M63.189 34.8706C59.4635 34.8706 57.6007 33.0978 57.6007 29.5523V24.3689H55.4949C55.297 24.3689 55.126 24.3059 54.982 24.1799C54.856 24.0539 54.793 23.892 54.793 23.694V21.5073C54.793 21.3093 54.856 21.1473 54.982 21.0213C55.126 20.8953 55.297 20.8323 55.4949 20.8323H57.6007V16.3779C57.6007 16.1799 57.6637 16.0179 57.7897 15.892C57.9336 15.766 58.0956 15.703 58.2756 15.703H61.4072C61.6052 15.703 61.7672 15.766 61.8931 15.892C62.0191 16.0179 62.0821 16.1799 62.0821 16.3779V20.8323H65.4567C65.6547 20.8323 65.8167 20.8953 65.9426 21.0213C66.0866 21.1473 66.1586 21.3093 66.1586 21.5073V23.694C66.1586 23.892 66.0866 24.0539 65.9426 24.1799C65.8167 24.3059 65.6547 24.3689 65.4567 24.3689H62.0821V29.1743C62.0821 30.5061 62.5951 31.1721 63.6209 31.1721H65.6997C65.8976 31.1721 66.0596 31.235 66.1856 31.361C66.3116 31.487 66.3746 31.649 66.3746 31.847V34.1957C66.3746 34.3757 66.3116 34.5376 66.1856 34.6816C66.0596 34.8076 65.8976 34.8706 65.6997 34.8706H63.189Z" fill="white"/>
<path d="M72.8213 35.1406C71.8674 35.1406 70.9945 34.9606 70.2026 34.6006C69.4287 34.2227 68.8168 33.7187 68.3669 33.0888C67.9349 32.4409 67.7189 31.73 67.7189 30.9561C67.7189 29.7142 68.2229 28.7154 69.2307 27.9595C70.2566 27.2035 71.6604 26.6816 73.4422 26.3936L76.8168 25.8807V25.5028C76.8168 24.8188 76.6728 24.3149 76.3849 23.9909C76.0969 23.667 75.6109 23.505 74.927 23.505C74.5131 23.505 74.1711 23.577 73.9012 23.721C73.6312 23.865 73.3522 24.0629 73.0643 24.3149C72.8123 24.5309 72.6233 24.6749 72.4973 24.7469C72.4433 24.8908 72.3444 24.9628 72.2004 24.9628H69.2577C69.0778 24.9628 68.9248 24.9088 68.7988 24.8008C68.6908 24.6749 68.6458 24.5309 68.6638 24.3689C68.6818 23.883 68.9158 23.343 69.3657 22.7491C69.8337 22.1552 70.5356 21.6422 71.4715 21.2103C72.4253 20.7784 73.5952 20.5624 74.981 20.5624C77.1948 20.5624 78.8325 21.0573 79.8944 22.0472C80.9563 23.0191 81.4872 24.3329 81.4872 25.9887V34.1957C81.4872 34.3757 81.4242 34.5376 81.2982 34.6816C81.1723 34.8076 81.0103 34.8706 80.8123 34.8706H77.6807C77.5007 34.8706 77.3387 34.8076 77.1948 34.6816C77.0688 34.5376 77.0058 34.3757 77.0058 34.1957V33.2508C76.6098 33.8087 76.0519 34.2677 75.332 34.6276C74.6301 34.9696 73.7932 35.1406 72.8213 35.1406ZM74.0901 32.0629C74.918 32.0629 75.584 31.793 76.0879 31.253C76.6098 30.7131 76.8708 29.9212 76.8708 28.8773V28.4994L74.5761 28.9043C72.9563 29.1923 72.1464 29.7592 72.1464 30.6051C72.1464 31.0551 72.3354 31.415 72.7133 31.685C73.0913 31.937 73.5502 32.0629 74.0901 32.0629Z" fill="white"/>
<path d="M85.1815 18.8076C84.9836 18.8076 84.8216 18.7446 84.6956 18.6186C84.5696 18.4926 84.5066 18.3307 84.5066 18.1327V15.703C84.5066 15.505 84.5696 15.343 84.6956 15.217C84.8216 15.0911 84.9836 15.0281 85.1815 15.0281H88.4211C88.6191 15.0281 88.7811 15.0911 88.9071 15.217C89.0331 15.343 89.096 15.505 89.096 15.703V18.1327C89.096 18.3307 89.0331 18.4926 88.9071 18.6186C88.7811 18.7446 88.6191 18.8076 88.4211 18.8076H85.1815ZM85.2085 34.8706C85.0106 34.8706 84.8486 34.8076 84.7226 34.6816C84.5966 34.5556 84.5336 34.3937 84.5336 34.1957V21.5073C84.5336 21.3093 84.5966 21.1473 84.7226 21.0213C84.8486 20.8953 85.0106 20.8323 85.2085 20.8323H88.3941C88.5921 20.8323 88.7541 20.8953 88.8801 21.0213C89.0061 21.1473 89.069 21.3093 89.069 21.5073V34.1957C89.069 34.3757 89.0061 34.5376 88.8801 34.6816C88.7541 34.8076 88.5921 34.8706 88.3941 34.8706H85.2085Z" fill="white"/>
<path d="M94.526 34.8706C94.346 34.8706 94.184 34.8076 94.04 34.6816C93.914 34.5376 93.851 34.3757 93.851 34.1957V24.3689H91.7993C91.6013 24.3689 91.4393 24.3059 91.3134 24.1799C91.1874 24.0539 91.1244 23.892 91.1244 23.694V21.5073C91.1244 21.3093 91.1874 21.1473 91.3134 21.0213C91.4393 20.8953 91.6013 20.8323 91.7993 20.8323H93.851V19.9685C93.851 18.1867 94.355 16.8998 95.3628 16.1079C96.3887 15.298 97.8555 14.8931 99.7633 14.8931H101.869C102.067 14.8931 102.229 14.9561 102.355 15.0821C102.481 15.208 102.544 15.37 102.544 15.568V17.7547C102.544 17.9347 102.481 18.0967 102.355 18.2407C102.229 18.3667 102.067 18.4296 101.869 18.4296H99.9793C99.3853 18.4296 98.9624 18.5736 98.7104 18.8616C98.4585 19.1316 98.3325 19.5455 98.3325 20.1034V20.8323H101.599C101.797 20.8323 101.959 20.8953 102.085 21.0213C102.211 21.1473 102.274 21.3093 102.274 21.5073V23.694C102.274 23.874 102.211 24.0359 102.085 24.1799C101.959 24.3059 101.797 24.3689 101.599 24.3689H98.3325V34.1957C98.3325 34.3757 98.2695 34.5376 98.1435 34.6816C98.0175 34.8076 97.8555 34.8706 97.6576 34.8706H94.526Z" fill="white"/>
<path d="M106.846 40C106.684 40 106.549 39.946 106.441 39.838C106.333 39.73 106.279 39.595 106.279 39.433C106.279 39.307 106.306 39.1901 106.36 39.0821L108.466 34.0067L103.283 21.7502C103.229 21.6062 103.202 21.4983 103.202 21.4263C103.238 21.2643 103.31 21.1293 103.418 21.0213C103.526 20.8953 103.661 20.8323 103.822 20.8323H106.9C107.278 20.8323 107.539 21.0213 107.683 21.3993L110.761 29.2553L113.919 21.3993C114.099 21.0213 114.369 20.8323 114.729 20.8323H117.753C117.915 20.8323 118.05 20.8953 118.158 21.0213C118.284 21.1293 118.347 21.2553 118.347 21.3993C118.347 21.4713 118.32 21.5882 118.266 21.7502L110.626 39.433C110.482 39.811 110.212 40 109.816 40H106.846Z" fill="white"/>
<path fill-rule="evenodd" clip-rule="evenodd" d="M36.0401 13.5426C35.7744 12.5032 35.28 11.6439 34.557 10.9647C33.6989 10.1586 32.5384 9.65508 31.0753 9.45401V22.5012C31.0753 27.3166 29.6896 30.9196 26.9181 33.31C24.1812 35.7004 20.4051 36.8956 15.5896 36.8956C10.7049 36.8956 6.87676 35.7004 4.10527 33.31C1.36842 30.9196 0 27.3166 0 22.5012V14.2906C0 13.9095 0.121253 13.5977 0.363758 13.3552C0.640907 13.1127 0.952699 12.9915 1.29913 12.9915H8.00267C8.38375 12.9915 8.69555 13.1127 8.93805 13.3552C9.2152 13.5977 9.35377 13.9095 9.35377 14.2906V22.4492C9.35377 24.701 9.87343 26.3986 10.9127 27.5418C11.9867 28.6504 13.5283 29.2047 15.5377 29.2047C17.5123 29.2047 19.0367 28.6331 20.1106 27.4898C21.1846 26.3466 21.7215 24.6664 21.7215 22.4492V1.29927C21.7215 0.918185 21.8428 0.606391 22.0853 0.363887C22.3624 0.121381 22.6742 0.000128475 23.0207 0.000128475L27.8321 0.00012849C27.8392 4.28804e-05 27.8463 7.52698e-08 27.8535 7.49569e-08L29.5683 0C29.5951 -1.17141e-09 29.6218 4.28055e-05 29.6485 0.00012842L29.7762 0.000128475C29.8001 0.000128475 29.8238 0.000607052 29.8472 0.00156426C34.5231 0.0542822 38.0331 1.43951 40.3771 4.15724C42.4286 6.50606 43.5998 9.62039 43.8907 13.5002C43.9729 14.5964 43.0755 15.4917 41.9763 15.4991L38.2854 15.5241C37.1756 15.5316 36.3151 14.6178 36.0401 13.5426Z" fill="#2DAFD8"/>
</svg>
